/usr/bin/ffmpeg -hide_banner -y -y -r 50 -start_number 0 -start_number_range 1 -i /home/nick/Pictures/elmo_fire/frame%04d.png -i /home/nick/dev/web/arez2.github.com/static/KritaTempPalettegen_%06d.png -lavfi [0:v][1:v]paletteuse=dither=sierra2_4a:diff_mode=none -f gif -loop 0 -gifflags +transdiff /home/nick/dev/web/arez2.github.com/static/elmo_fire.gif
=====================================================
Input #0, image2, from '/home/nick/Pictures/elmo_fire/frame%04d.png':
  Duration: 00:00:02.36, start: 0.000000, bitrate: N/A
  Stream #0:0: Video: png, rgba(pc, gbr/unknown/unknown), 158x80 [SAR 2834:2834 DAR 79:40], 25 fps, 25 tbr, 25 tbn
Input #1, image2, from '/home/nick/dev/web/arez2.github.com/static/KritaTempPalettegen_%06d.png':
  Duration: 00:00:00.04, start: 0.000000, bitrate: N/A
  Stream #1:0: Video: png, rgba(pc, gbr/unknown/unknown), 16x16 [SAR 1:1 DAR 1:1], 25 fps, 25 tbr, 25 tbn
Stream mapping:
  Stream #0:0 (png) -> paletteuse
  Stream #1:0 (png) -> paletteuse
  paletteuse:default -> Stream #0:0 (gif)
Press [q] to stop, [?] for help
[in#0/image2 @ 0x6235c0c42f80] Thread message queue blocking; consider raising the thread_queue_size option (current value: 8)
Output #0, gif, to '/home/nick/dev/web/arez2.github.com/static/elmo_fire.gif':
  Metadata:
    encoder         : Lavf60.16.100
  Stream #0:0: Video: gif, pal8(pc, gbr/unknown/unknown, progressive), 158x80 [SAR 1:1 DAR 79:40], q=2-31, 200 kb/s, 50 fps, 100 tbn
    Metadata:
      encoder         : Lavc60.31.102 gif
frame=    0 fps=0.0 q=-0.0 size=       0kB time=00:00:00.00 bitrate=N/A speed=   0x    [out#0/gif @ 0x6235c0d6a1c0] video:268kB audio:0kB subtitle:0kB other streams:0kB global headers:0kB muxing overhead: 0.007297%
frame=   59 fps=0.0 q=-0.0 Lsize=     268kB time=00:00:01.16 bitrate=1890.4kbits/s speed=15.8x    
